<svg width="19" height="18" viewBox="0 0 19 18" fill="none" xmlns="http://www.w3.org/2000/svg">
<path d="M14.4058 3.21361C13.8228 3.21361 13.3502 3.68623 13.3502 4.26873C13.3502 4.85174 13.8228 5.32435 14.4058 5.32435C14.9883 5.32435 15.4609 4.85174 15.4609 4.26873C15.4609 3.68623 14.9883 3.21361 14.4058 3.21361Z" fill="white"/>
<path d="M9.71408 11.8393C8.14819 11.8393 6.87431 10.5654 6.87431 9.00002C6.87431 7.43414 8.14819 6.16028 9.71408 6.16028C11.2794 6.16028 12.5533 7.43414 12.5533 9.00002C12.5533 10.5654 11.2794 11.8393 9.71408 11.8393ZM9.71408 4.56692C7.26961 4.56692 5.28098 6.55556 5.28098 9.00002C5.28098 11.444 7.26961 13.4326 9.71408 13.4326C12.158 13.4326 14.1467 11.444 14.1467 9.00002C14.1467 6.55556 12.158 4.56692 9.71408 4.56692Z" fill="white"/>
<path d="M6.04709 1.69357C3.99944 1.69357 2.33384 3.35917 2.33384 5.40682V12.5932C2.33384 14.6408 3.99944 16.3064 6.04709 16.3064H13.2334C15.2811 16.3064 16.9472 14.6408 16.9472 12.5932V5.40682C16.9472 3.35917 15.2811 1.69357 13.2334 1.69357H6.04709ZM13.2334 18H6.04709C3.0654 18 0.640774 15.5744 0.640774 12.5932V5.40682C0.640774 2.42513 3.0654 0 6.04709 0H13.2334C16.2146 0 18.6403 2.42513 18.6403 5.40682V12.5932C18.6403 15.5744 16.2146 18 13.2334 18Z" fill="white"/>
</svg>
